<svg xmlns="http://www.w3.org/2000/svg" version="1.1" xmlns:xlink="http://www.w3.org/1999/xlink" xmlns:svgjs="http://svgjs.dev/svgjs" width="1500" height="1500" viewBox="0 0 1500 1500"><rect width="1500" height="1500" fill="#ff851b"></rect><g transform="matrix(0.6666666666666666,0,0,0.6666666666666666,249.69672702774972,292.8634408602151)"><svg viewBox="0 0 272 248" data-background-color="#ff851b" preserveAspectRatio="xMidYMid meet" height="1367" width="1500" xmlns="http://www.w3.org/2000/svg" xmlns:xlink="http://www.w3.org/1999/xlink"><g id="tight-bounds" transform="matrix(1,0,0,1,0.08249024845207487,0.4000000000000057)"><svg viewBox="0 0 271.83501950309585 247.2" height="247.2" width="271.83501950309585"><g><svg viewBox="0 0 395.52 359.67604239779155" height="247.2" width="271.83501950309585"><g transform="matrix(1,0,0,1,0,220.40002639681842)"><svg viewBox="0 0 395.52 139.2760160009731" height="139.2760160009731" width="395.52"><g id="textblocktransform"><svg viewBox="0 0 395.52 139.2760160009731" height="139.2760160009731" width="395.52" id="textblock"><g><svg viewBox="0 0 395.52 85.65628915662651" height="85.65628915662651" width="395.52"><g transform="matrix(1,0,0,1,0,0)"><svg width="395.52" viewBox="2.25 -35.45 165.99 35.95" height="85.65628915662651" data-palette-color="#5e360f"><path d="M3.55-35L21.2-35Q22.05-35 22.05-30.58 22.05-26.15 21.2-26.15L21.2-26.15 12.05-26.15 12.05-20.45 18.15-20.45Q19-20.45 19-16.57 19-12.7 18.2-12.7L18.2-12.7 12.05-12.7 12.05-0.65Q12.05 0.05 10.18 0.28 8.3 0.5 7.05 0.5L7.05 0.5 4.7 0.4Q2.25 0.1 2.25-0.6L2.25-0.6 2.25-33.7Q2.25-34.5 2.58-34.75 2.9-35 3.55-35L3.55-35ZM40.97 0.5Q33.95 0.5 29.52-4.1 25.1-8.7 25.1-17.53 25.1-26.35 29.57-30.9 34.05-35.45 41.12-35.45 48.2-35.45 52.55-30.98 56.9-26.5 56.9-17.43 56.9-8.35 52.45-3.93 48 0.5 40.97 0.5ZM41-25.85Q38.6-25.85 36.97-23.65 35.35-21.45 35.35-17.48 35.35-13.5 36.9-11.38 38.45-9.25 40.97-9.25 43.5-9.25 45.07-11.4 46.65-13.55 46.65-17.55 46.65-21.55 45.02-23.7 43.4-25.85 41-25.85ZM75.77 0.5Q68.75 0.5 64.32-4.1 59.9-8.7 59.9-17.53 59.9-26.35 64.37-30.9 68.85-35.45 75.92-35.45 83-35.45 87.35-30.98 91.7-26.5 91.7-17.43 91.7-8.35 87.25-3.93 82.8 0.5 75.77 0.5ZM75.8-25.85Q73.4-25.85 71.77-23.65 70.15-21.45 70.15-17.48 70.15-13.5 71.7-11.38 73.25-9.25 75.77-9.25 78.3-9.25 79.87-11.4 81.45-13.55 81.45-17.55 81.45-21.55 79.82-23.7 78.2-25.85 75.8-25.85ZM95.69-2.3L95.69-2.3 95.69-32.3Q95.69-33.55 96.32-34.27 96.94-35 97.94-35L97.94-35 106.29-35Q114.24-35 118.37-31 122.49-27 122.49-18.4L122.49-18.4Q122.49 0 106.79 0L106.79 0 98.24 0Q95.69 0 95.69-2.3ZM105.79-25.5L105.29-25.5 105.29-10.55Q105.29-9.5 105.44-9.22 105.59-8.95 106.34-8.95L106.34-8.95Q109.09-8.95 110.52-11 111.94-13.05 111.94-17.82 111.94-22.6 110.47-24.05 108.99-25.5 105.79-25.5L105.79-25.5ZM126.34-8.6L129.79-8.6 129.79-26.4 126.24-26.4Q125.39-26.4 125.04-28.55L125.04-28.55Q124.89-29.6 124.89-30.7 124.89-31.8 125.04-32.85L125.04-32.85Q125.39-35 126.24-35L126.24-35 143.04-35Q143.89-35 144.19-32.85L144.19-32.85Q144.39-31.8 144.39-30.7 144.39-29.6 144.19-28.55L144.19-28.55Q143.89-26.4 143.04-26.4L143.04-26.4 139.69-26.4 139.69-8.6 143.19-8.6Q144.04-8.6 144.39-6.45L144.39-6.45Q144.59-5.4 144.59-4.3 144.59-3.2 144.39-2.15L144.39-2.15Q144.04 0 143.19 0L143.19 0 126.34 0Q125.49 0 125.19-2.15L125.19-2.15Q124.99-3.2 124.99-4.3 124.99-5.4 125.19-6.45L125.19-6.45Q125.49-8.6 126.34-8.6L126.34-8.6ZM157.74-21.1L164.19-21.1Q165.14-21.1 165.14-17.6L165.14-17.6Q165.14-16.55 164.91-15.13 164.69-13.7 164.09-13.7L164.09-13.7 157.74-13.7 157.74-8.7 166.94-8.7Q167.79-8.7 168.09-6.5L168.09-6.5Q168.24-5.55 168.24-4.48 168.24-3.4 167.94-1.7 167.64 0 166.94 0L166.94 0 149.84 0Q147.94 0 147.94-1.55L147.94-1.55 147.94-33.7Q147.94-35 149.09-35L149.09-35 166.99-35Q168.04-35 168.04-30.58 168.04-26.15 166.99-26.15L166.99-26.15 157.74-26.15 157.74-21.1Z" opacity="1" transform="matrix(1,0,0,1,0,0)" fill="#5e360f" class="wordmark-text-0" data-fill-palette-color="primary" id="text-0"></path></svg></g></svg></g><g transform="matrix(1,0,0,1,75.54432,105.87768327556628)"><svg viewBox="0 0 244.43135999999998 33.39833272540683" height="33.39833272540683" width="244.43135999999998"><g transform="matrix(1,0,0,1,0,0)"><svg width="244.43135999999998" viewBox="2 -36.75 341 46.6" height="33.39833272540683" data-palette-color="#a63b08"><path d="M5.75 0L2 0 2-34.1Q2-34.1 2.13-34.55 2.25-35 2.85-35L2.85-35 14.85-35Q14.85-33.15 14.83-32.33 14.8-31.5 14.63-31.3 14.45-31.1 14-31.1L14-31.1 6.55-31.1 6.55-0.9Q6.55-0.9 6.48-0.45 6.4 0 5.75 0L5.75 0ZM12.75-16.95L2.5-16.95 2.5-21.1 13.6-21.1Q13.6-18.55 13.5-17.75 13.4-16.95 12.75-16.95L12.75-16.95ZM23.45 0.5L23.45 0.5Q21.5 0.5 20.02 0.03 18.55-0.45 17.55-1.8 16.55-3.15 16.07-5.73 15.6-8.3 15.6-12.5L15.6-12.5Q15.6-19.35 17.8-22.43 20-25.5 23.9-25.5L23.9-25.5Q26.55-25.5 28.27-24.43 30-23.35 30.82-20.55 31.65-17.75 31.65-12.65L31.65-12.65Q31.65-5.6 29.57-2.55 27.5 0.5 23.45 0.5ZM23.6-3.35L23.6-3.35Q24.5-3.35 25.17-4.05 25.85-4.75 26.27-6.75 26.7-8.75 26.7-12.6L26.7-12.6Q26.7-16.45 26.4-18.4 26.1-20.35 25.45-21 24.8-21.65 23.75-21.65L23.75-21.65Q22.8-21.65 22.07-20.95 21.35-20.25 20.95-18.25 20.55-16.25 20.55-12.45L20.55-12.45Q20.55-9.45 20.75-7.6 20.95-5.75 21.32-4.85 21.7-3.95 22.27-3.65 22.85-3.35 23.6-3.35ZM42.1 0.5L42.1 0.5Q40.15 0.5 38.67 0.03 37.2-0.45 36.2-1.8 35.2-3.15 34.72-5.73 34.25-8.3 34.25-12.5L34.25-12.5Q34.25-19.35 36.45-22.43 38.65-25.5 42.55-25.5L42.55-25.5Q45.2-25.5 46.92-24.43 48.65-23.35 49.47-20.55 50.3-17.75 50.3-12.65L50.3-12.65Q50.3-5.6 48.22-2.55 46.15 0.5 42.1 0.5ZM42.25-3.35L42.25-3.35Q43.15-3.35 43.82-4.05 44.5-4.75 44.92-6.75 45.35-8.75 45.35-12.6L45.35-12.6Q45.35-16.45 45.05-18.4 44.75-20.35 44.1-21 43.45-21.65 42.4-21.65L42.4-21.65Q41.45-21.65 40.72-20.95 40-20.25 39.6-18.25 39.2-16.25 39.2-12.45L39.2-12.45Q39.2-9.45 39.4-7.6 39.6-5.75 39.97-4.85 40.35-3.95 40.92-3.65 41.5-3.35 42.25-3.35ZM61.09 0.5L61.09 0.5Q59.49 0.5 58.04 0.13 56.59-0.25 55.44-1.48 54.29-2.7 53.64-5.1 52.99-7.5 52.99-11.5L52.99-11.5Q52.99-16.55 53.97-19.63 54.94-22.7 56.64-24.1 58.34-25.5 60.39-25.5L60.39-25.5Q61.49-25.5 62.34-25.25 63.19-25 63.74-24.55L63.74-24.55 63.74-34.7Q63.74-35.75 64.09-36.18 64.44-36.6 65.47-36.68 66.49-36.75 68.34-36.75L68.34-36.75 68.34-1Q67.09-0.45 65.29 0.03 63.49 0.5 61.09 0.5ZM61.24-3.55L61.24-3.55Q61.94-3.55 62.59-3.73 63.24-3.9 63.74-4.25L63.74-4.25 63.74-21.05Q63.39-21.35 62.92-21.45 62.44-21.55 61.89-21.55L61.89-21.55Q61.19-21.55 60.52-21.23 59.84-20.9 59.29-19.9 58.74-18.9 58.42-17.03 58.09-15.15 58.09-12.05L58.09-12.05Q58.09-9.4 58.29-7.75 58.49-6.1 58.89-5.18 59.29-4.25 59.89-3.9 60.49-3.55 61.24-3.55ZM86.34 0.5L86.34 0.5Q84.94 0.5 83.66 0.28 82.39 0.05 81.36-0.73 80.34-1.5 79.76-3.05 79.19-4.6 79.19-7.15L79.19-7.15Q79.19-9.75 79.71-11.38 80.24-13 81.16-13.88 82.09-14.75 83.21-15.08 84.34-15.4 85.54-15.4L85.54-15.4Q86.29-15.4 87.31-15.25 88.34-15.1 89.04-14.7L89.04-14.7Q89.04-14.7 89.04-15.35 89.04-16 89.04-16.9 89.04-17.8 89.04-18.5L89.04-18.5Q89.04-19.5 88.74-20.05 88.44-20.6 87.84-20.85 87.24-21.1 86.29-21.1L86.29-21.1Q84.54-21.1 82.79-20.78 81.04-20.45 79.89-20L79.89-20Q79.49-20.7 79.36-21.4 79.24-22.1 79.24-22.6L79.24-22.6Q79.24-23 79.39-23.45 79.54-23.9 79.84-24.1L79.84-24.1Q80.44-24.5 82.49-25 84.54-25.5 87.44-25.5L87.44-25.5Q90.74-25.5 92.19-24.15 93.64-22.8 93.64-19.4L93.64-19.4 93.64-16.85Q93.64-14 93.61-11.08 93.59-8.15 93.54-5.6 93.49-3.05 93.39-1.15L93.39-1.15Q92.29-0.5 90.49 0 88.69 0.5 86.34 0.5ZM86.69-3.3L86.69-3.3Q87.39-3.3 88.01-3.53 88.64-3.75 88.89-4L88.89-4Q88.99-4.75 89.01-6.05 89.04-7.35 89.04-8.83 89.04-10.3 89.04-11.55L89.04-11.55Q88.64-11.8 88.06-11.9 87.49-12 87.04-12L87.04-12Q86.44-12 85.86-11.83 85.29-11.65 84.86-11.13 84.44-10.6 84.21-9.7 83.99-8.8 83.99-7.3L83.99-7.3Q83.99-6.1 84.16-5.33 84.34-4.55 84.69-4.1 85.04-3.65 85.56-3.48 86.09-3.3 86.69-3.3ZM103.89 0.5L103.89 0.5Q101.73 0.5 100.69-0.38 99.64-1.25 99.31-2.93 98.98-4.6 98.98-6.8L98.98-6.8 98.98-21.1 95.69-21.1Q95.69-22.85 95.73-23.68 95.78-24.5 96.01-24.75 96.23-25 96.69-25L96.69-25 98.98-25 98.98-32.5Q98.98-33.25 99.36-33.55 99.73-33.85 100.71-33.93 101.69-34 103.53-34L103.53-34 103.53-25 108.34-25Q108.34-23.25 108.28-22.43 108.23-21.6 108.06-21.35 107.89-21.1 107.44-21.1L107.44-21.1 103.53-21.1 103.53-6.85Q103.53-5.95 103.61-5.15 103.69-4.35 104.01-3.88 104.34-3.4 105.14-3.4L105.14-3.4Q105.98-3.4 106.61-3.58 107.23-3.75 107.98-4.1L107.98-4.1Q108.09-3.7 108.19-3.15 108.28-2.6 108.28-1.9L108.28-1.9Q108.28-0.9 107.59-0.38 106.89 0.15 105.89 0.33 104.89 0.5 103.89 0.5ZM120.93 9.65L120.93 9.65Q118.48 9.65 117.56 9.05 116.63 8.45 116.63 7.5L116.63 7.5Q116.63 6.9 116.81 6.18 116.98 5.45 117.28 5L117.28 5Q117.78 5.3 118.68 5.53 119.58 5.75 120.53 5.75L120.53 5.75Q121.63 5.75 122.48 4.7 123.33 3.65 123.78 0.8L123.78 0.8 117.98-23.75Q117.83-24.4 117.95-24.65 118.08-24.9 119.08-24.95 120.08-25 122.43-25L122.43-25 124.73-14.15Q125.03-12.6 125.26-11 125.48-9.4 125.66-8 125.83-6.6 125.93-5.75 126.03-4.9 126.03-4.9L126.03-4.9Q126.03-4.9 126.11-5.75 126.18-6.6 126.36-7.98 126.53-9.35 126.76-10.98 126.98-12.6 127.18-14.2L127.18-14.2 128.98-23.7Q129.08-24.35 129.33-24.6 129.58-24.85 130.58-24.93 131.58-25 133.88-25L133.88-25 127.93 1.3Q127.18 4.45 126.28 6.3 125.38 8.15 124.11 8.9 122.83 9.65 120.93 9.65ZM142.83 0.5L142.83 0.5Q140.88 0.5 139.4 0.03 137.93-0.45 136.93-1.8 135.93-3.15 135.45-5.73 134.98-8.3 134.98-12.5L134.98-12.5Q134.98-19.35 137.18-22.43 139.38-25.5 143.28-25.5L143.28-25.5Q145.93-25.5 147.65-24.43 149.38-23.35 150.2-20.55 151.03-17.75 151.03-12.65L151.03-12.65Q151.03-5.6 148.95-2.55 146.88 0.5 142.83 0.5ZM142.98-3.35L142.98-3.35Q143.88-3.35 144.55-4.05 145.23-4.75 145.65-6.75 146.08-8.75 146.08-12.6L146.08-12.6Q146.08-16.45 145.78-18.4 145.48-20.35 144.83-21 144.18-21.65 143.13-21.65L143.13-21.65Q142.18-21.65 141.45-20.95 140.73-20.25 140.33-18.25 139.93-16.25 139.93-12.45L139.93-12.45Q139.93-9.45 140.13-7.6 140.33-5.75 140.7-4.85 141.08-3.95 141.65-3.65 142.23-3.35 142.98-3.35ZM161.72 0.5L161.72 0.5Q158.78 0.5 157.15-0.4 155.53-1.3 154.88-3.08 154.22-4.85 154.22-7.55L154.22-7.55 154.22-24.1Q154.22-24.55 154.43-24.73 154.63-24.9 155.63-24.95 156.63-25 158.97-25L158.97-25 158.97-7.2Q158.97-5.85 159.2-5.03 159.43-4.2 160.03-3.83 160.63-3.45 161.78-3.45L161.78-3.45Q162.38-3.45 163.18-3.63 163.97-3.8 164.63-4.3L164.63-4.3 164.63-24.1Q164.63-24.55 164.83-24.73 165.03-24.9 165.97-24.95 166.93-25 169.18-25L169.18-25 169.18-1.35Q167.83-0.6 165.83-0.05 163.83 0.5 161.72 0.5ZM173.22 0L173.22 0 173.22-23.25Q174.62-24.25 176.37-24.88 178.12-25.5 180.07-25.5L180.07-25.5Q182.07-25.5 182.8-24.95 183.52-24.4 183.52-23.25L183.52-23.25Q183.52-22.85 183.42-22.1 183.32-21.35 183.02-20.6L183.02-20.6Q182.52-20.85 181.97-20.98 181.42-21.1 180.82-21.1L180.82-21.1Q180.12-21.1 179.35-20.85 178.57-20.6 177.92-20.1L177.92-20.1 177.87-0.9Q177.87-0.45 177.67-0.28 177.47-0.1 176.5-0.05 175.52 0 173.22 0ZM201.12 0.5L201.12 0.5Q199.52 0.5 198.07 0.13 196.62-0.25 195.47-1.48 194.32-2.7 193.67-5.1 193.02-7.5 193.02-11.5L193.02-11.5Q193.02-16.55 193.99-19.63 194.97-22.7 196.67-24.1 198.37-25.5 200.42-25.5L200.42-25.5Q201.52-25.5 202.37-25.25 203.22-25 203.77-24.55L203.77-24.55 203.77-34.7Q203.77-35.75 204.12-36.18 204.47-36.6 205.49-36.68 206.52-36.75 208.37-36.75L208.37-36.75 208.37-1Q207.12-0.45 205.32 0.03 203.52 0.5 201.12 0.5ZM201.27-3.55L201.27-3.55Q201.97-3.55 202.62-3.73 203.27-3.9 203.77-4.25L203.77-4.25 203.77-21.05Q203.42-21.35 202.94-21.45 202.47-21.55 201.92-21.55L201.92-21.55Q201.22-21.55 200.54-21.23 199.87-20.9 199.32-19.9 198.77-18.9 198.44-17.03 198.12-15.15 198.12-12.05L198.12-12.05Q198.12-9.4 198.32-7.75 198.52-6.1 198.92-5.18 199.32-4.25 199.92-3.9 200.52-3.55 201.27-3.55ZM219.42 0.5L219.42 0.5Q217.47 0.5 215.99 0.03 214.52-0.45 213.52-1.8 212.52-3.15 212.04-5.73 211.57-8.3 211.57-12.5L211.57-12.5Q211.57-19.35 213.77-22.43 215.97-25.5 219.87-25.5L219.87-25.5Q222.52-25.5 224.24-24.43 225.97-23.35 226.79-20.55 227.62-17.75 227.62-12.65L227.62-12.65Q227.62-5.6 225.54-2.55 223.47 0.5 219.42 0.5ZM219.57-3.35L219.57-3.35Q220.47-3.35 221.14-4.05 221.82-4.75 222.24-6.75 222.67-8.75 222.67-12.6L222.67-12.6Q222.67-16.45 222.37-18.4 222.07-20.35 221.42-21 220.77-21.65 219.72-21.65L219.72-21.65Q218.77-21.65 218.04-20.95 217.32-20.25 216.92-18.25 216.52-16.25 216.52-12.45L216.52-12.45Q216.52-9.45 216.72-7.6 216.92-5.75 217.29-4.85 217.67-3.95 218.24-3.65 218.82-3.35 219.57-3.35ZM238.06 0.5L238.06 0.5Q236.11 0.5 234.64 0.03 233.16-0.45 232.16-1.8 231.16-3.15 230.69-5.73 230.21-8.3 230.21-12.5L230.21-12.5Q230.21-19.35 232.41-22.43 234.61-25.5 238.51-25.5L238.51-25.5Q241.16-25.5 242.89-24.43 244.61-23.35 245.44-20.55 246.26-17.75 246.26-12.65L246.26-12.65Q246.26-5.6 244.19-2.55 242.11 0.5 238.06 0.5ZM238.21-3.35L238.21-3.35Q239.11-3.35 239.79-4.05 240.46-4.75 240.89-6.75 241.31-8.75 241.31-12.6L241.31-12.6Q241.31-16.45 241.01-18.4 240.71-20.35 240.06-21 239.41-21.65 238.36-21.65L238.36-21.65Q237.41-21.65 236.69-20.95 235.96-20.25 235.56-18.25 235.16-16.25 235.16-12.45L235.16-12.45Q235.16-9.45 235.36-7.6 235.56-5.75 235.94-4.85 236.31-3.95 236.89-3.65 237.46-3.35 238.21-3.35ZM249.56 0L249.56 0 249.56-23.25Q250.96-24.25 252.71-24.88 254.46-25.5 256.41-25.5L256.41-25.5Q258.41-25.5 259.14-24.95 259.86-24.4 259.86-23.25L259.86-23.25Q259.86-22.85 259.76-22.1 259.66-21.35 259.36-20.6L259.36-20.6Q258.86-20.85 258.31-20.98 257.76-21.1 257.16-21.1L257.16-21.1Q256.46-21.1 255.69-20.85 254.91-20.6 254.26-20.1L254.26-20.1 254.21-0.9Q254.21-0.45 254.01-0.28 253.81-0.1 252.84-0.05 251.86 0 249.56 0ZM267.76 0.5L267.76 0.5Q265.16 0.5 263.43-0.13 261.71-0.75 261.71-2.15L261.71-2.15Q261.71-2.7 261.88-3.38 262.06-4.05 262.51-4.8L262.51-4.8Q263.56-4.2 264.76-3.9 265.96-3.6 267.26-3.6L267.26-3.6Q269.01-3.6 269.93-4.33 270.86-5.05 270.86-6.35L270.86-6.35Q270.86-7.2 270.51-8.08 270.16-8.95 269.11-9.9L269.11-9.9 264.46-14.2Q262.86-15.6 262.28-16.95 261.71-18.3 261.71-19.5L261.71-19.5Q261.71-21.25 262.56-22.6 263.41-23.95 265.23-24.73 267.06-25.5 269.96-25.5L269.96-25.5Q272.56-25.5 273.91-25 275.26-24.5 275.71-23.83 276.16-23.15 276.16-22.6L276.16-22.6Q276.16-21.4 275.21-20.3L275.21-20.3Q274.11-20.95 272.98-21.25 271.86-21.55 270.51-21.55L270.51-21.55Q268.91-21.55 268.01-21 267.11-20.45 267.11-19.4L267.11-19.4Q267.11-18.85 267.43-18.23 267.76-17.6 268.91-16.55L268.91-16.55 273.26-12.75Q274.81-11.15 275.43-9.8 276.06-8.45 276.06-6.55L276.06-6.55Q276.06-3.2 273.83-1.35 271.61 0.5 267.76 0.5ZM286.16 0.5L286.16 0.5Q284.01 0.5 282.96-0.38 281.91-1.25 281.58-2.93 281.26-4.6 281.26-6.8L281.26-6.8 281.26-21.1 277.96-21.1Q277.96-22.85 278.01-23.68 278.06-24.5 278.28-24.75 278.51-25 278.96-25L278.96-25 281.26-25 281.26-32.5Q281.26-33.25 281.63-33.55 282.01-33.85 282.98-33.93 283.96-34 285.81-34L285.81-34 285.81-25 290.61-25Q290.61-23.25 290.56-22.43 290.51-21.6 290.33-21.35 290.16-21.1 289.71-21.1L289.71-21.1 285.81-21.1 285.81-6.85Q285.81-5.95 285.88-5.15 285.96-4.35 286.28-3.88 286.61-3.4 287.41-3.4L287.41-3.4Q288.26-3.4 288.88-3.58 289.51-3.75 290.26-4.1L290.26-4.1Q290.36-3.7 290.46-3.15 290.56-2.6 290.56-1.9L290.56-1.9Q290.56-0.9 289.86-0.38 289.16 0.15 288.16 0.33 287.16 0.5 286.16 0.5ZM300 0.5L300 0.5Q298.25 0.5 296.8 0 295.35-0.5 294.3-1.75 293.25-3 292.65-5.3 292.05-7.6 292.05-11.25L292.05-11.25Q292.05-15.9 292.8-18.73 293.55-21.55 294.8-23 296.05-24.45 297.65-24.98 299.25-25.5 300.9-25.5L300.9-25.5Q304-25.5 305.65-23.53 307.3-21.55 307.3-17.45L307.3-17.45Q307.3-15.7 307.15-13.9 307-12.1 306.65-10.75L306.65-10.75Q305-10.4 302.98-10.23 300.95-10.05 299.08-10 297.2-9.95 296-9.95 294.8-9.95 294.8-9.95L294.8-9.95 294.9-13.65Q294.9-13.65 295.75-13.63 296.6-13.6 297.9-13.6 299.2-13.6 300.48-13.73 301.75-13.85 302.6-14.1L302.6-14.1Q302.75-14.75 302.8-15.53 302.85-16.3 302.85-17L302.85-17Q302.8-19.6 302.28-20.55 301.75-21.5 300.35-21.5L300.35-21.5Q299.55-21.5 298.9-21 298.25-20.5 297.78-19.35 297.3-18.2 297.05-16.28 296.8-14.35 296.8-11.45L296.8-11.45Q296.8-9.3 297.03-7.85 297.25-6.4 297.73-5.55 298.2-4.7 299.03-4.33 299.85-3.95 301-3.95L301-3.95Q302.45-3.95 303.88-4.35 305.3-4.75 306.55-5.45L306.55-5.45Q306.8-4.8 306.88-3.93 306.95-3.05 306.95-2.35L306.95-2.35Q306.95-1.5 306-0.85 305.05-0.2 303.48 0.15 301.9 0.5 300 0.5ZM312.8 9.85L312.8 9.85Q311.6 9.85 311.1 9.45 310.6 9.05 310.6 7.85L310.6 7.85 310.6-23.55Q312.1-24.45 314-24.98 315.9-25.5 317.9-25.5L317.9-25.5Q320.35-25.5 322.18-24.63 324-23.75 325.03-21.53 326.05-19.3 326.05-15.2L326.05-15.2Q326.05-11.15 325.65-8.38 325.25-5.6 324.53-3.85 323.8-2.1 322.9-1.15 322-0.2 320.98 0.15 319.95 0.5 318.9 0.5L318.9 0.5Q317.6 0.5 316.68 0.15 315.75-0.2 315.15-0.75L315.15-0.75 315.15 9.5Q314.6 9.65 313.98 9.75 313.35 9.85 312.8 9.85ZM317.4-3.55L317.4-3.55Q317.95-3.55 318.55-3.9 319.15-4.25 319.7-5.38 320.25-6.5 320.6-8.75 320.95-11 320.95-14.8L320.95-14.8Q320.95-17.55 320.6-19.03 320.25-20.5 319.53-21.03 318.8-21.55 317.65-21.55L317.65-21.55Q316.25-21.55 315.15-20.7L315.15-20.7 315.15-4.95Q315.6-4.25 316.18-3.9 316.75-3.55 317.4-3.55ZM334.6 0.5L334.6 0.5Q332 0.5 330.27-0.13 328.55-0.75 328.55-2.15L328.55-2.15Q328.55-2.7 328.72-3.38 328.9-4.05 329.35-4.8L329.35-4.8Q330.4-4.2 331.6-3.9 332.8-3.6 334.1-3.6L334.1-3.6Q335.85-3.6 336.77-4.33 337.7-5.05 337.7-6.35L337.7-6.35Q337.7-7.2 337.35-8.08 337-8.95 335.95-9.9L335.95-9.9 331.3-14.2Q329.7-15.6 329.12-16.95 328.55-18.3 328.55-19.5L328.55-19.5Q328.55-21.25 329.4-22.6 330.25-23.95 332.07-24.73 333.9-25.5 336.8-25.5L336.8-25.5Q339.4-25.5 340.75-25 342.1-24.5 342.55-23.83 343-23.15 343-22.6L343-22.6Q343-21.4 342.05-20.3L342.05-20.3Q340.95-20.95 339.82-21.25 338.7-21.55 337.35-21.55L337.35-21.55Q335.75-21.55 334.85-21 333.95-20.45 333.95-19.4L333.95-19.4Q333.95-18.85 334.27-18.23 334.6-17.6 335.75-16.55L335.75-16.55 340.1-12.75Q341.65-11.15 342.27-9.8 342.9-8.45 342.9-6.55L342.9-6.55Q342.9-3.2 340.67-1.35 338.45 0.5 334.6 0.5Z" opacity="1" transform="matrix(1,0,0,1,0,0)" fill="#a63b08" class="slogan-text-1" data-fill-palette-color="secondary" id="text-1"></path></svg></g></svg></g></svg></g></svg></g><g transform="matrix(1,0,0,1,72.66151004782542,0)"><svg viewBox="0 0 250.19697990434915 200.17863227787865" height="200.17863227787865" width="250.19697990434915"><g><svg xmlns="http://www.w3.org/2000/svg" xmlns:xlink="http://www.w3.org/1999/xlink" version="1.1" x="0" y="0" viewBox="0.53 7.634 98.98302855209187 79.19475000000003" enable-background="new 0 0 100 100" xml:space="preserve" height="200.17863227787865" width="250.19697990434915" class="icon-icon-0" data-fill-palette-color="accent" id="icon-0"><g fill="#a63b08" data-fill-palette-color="accent"><path d="M83.913 36.785L58.8 36.774C50.869 36.774 43.624 43.241 43.624 51.311V67.77H24.983C18.53 67.77 18.53 77.293 24.983 77.293H48.015L48.705 77.267C50.923 77.283 53.149 75.611 53.149 72.257V52.23H56.652L56.645 86.667H86.6L86.612 52.23H90.062V81.776C90.062 88.513 99.532 88.513 99.513 81.776V51.516C99.513 44.077 92.621 36.785 83.913 36.785" fill="#a63b08" data-fill-palette-color="accent"></path><path d="M0.53 26.568V65.26H40.31V26.568zM36.414 61.362H4.427V30.465H17.265V43.777H23.021V30.465H36.413V61.362z" fill="#a63b08" data-fill-palette-color="accent"></path></g><g fill="#a63b08" data-fill-palette-color="accent"><g fill="#a63b08" data-fill-palette-color="accent"><path d="M81.882 21.195V21.173H81.89L81.905 17.881C81.65 12.187 76.993 7.634 71.233 7.634 65.511 7.634 60.88 12.136 60.577 17.785H51.87V21.173z" fill="#a63b08" data-fill-palette-color="accent"></path><path d="M60.535 23.972C60.658 29.773 65.372 34.441 71.203 34.441 76.984 34.441 81.669 29.838 81.855 24.095H81.859V24.073C81.859 24.037 81.863 24.006 81.867 23.972z" fill="#a63b08" data-fill-palette-color="accent"></path></g></g></svg></g></svg></g><g></g></svg></g><defs></defs></svg><rect width="271.83501950309585" height="247.2" fill="none" stroke="none" visibility="hidden"></rect></g></svg></g></svg>